<svg width="138" height="38" viewBox="0 0 138 38" fill="none" xmlns="http://www.w3.org/2000/svg">
<path fill-rule="evenodd" clip-rule="evenodd" d="M17.3343 32.8769C17.8973 32.8769 18.3584 33.3352 18.3584 33.8948V34.9999C18.3584 35.5596 17.8973 36.0178 17.3343 36.0178H14.6271C14.064 36.0178 13.603 35.5596 13.603 34.9999V33.8948C13.603 33.3352 14.064 32.8769 14.6271 32.8769H17.3343ZM28.758 0.243652C31.185 0.243652 33.1508 3.31693 33.1508 7.10735C33.1508 9.83184 32.1348 12.1871 30.6622 13.2948C30.1465 13.7548 29.8063 14.4159 29.8323 15.1491V31.8991C29.8323 33.5122 29.1689 34.9768 28.1018 36.0383C27.0643 37.0704 25.64 37.7217 24.0689 37.7564H7.89246C6.32137 37.7217 4.89798 37.0704 3.85954 36.0383C2.79155 34.9768 2.1291 33.5131 2.1291 31.8991V15.1491C2.15506 14.391 1.79339 13.7086 1.24552 13.2477C0.472955 12.8117 -0.0561146 12.0002 0.00475976 11.0802L0.671692 1.07381V1.06936L0.675273 1.01242C0.737937 0.507025 1.56959 0.52749 1.56959 1.07381V9.0257C1.56959 9.1654 1.68418 9.27929 1.82472 9.27929C1.96527 9.27929 2.07986 9.16629 2.07986 9.0257V1.06224C2.08612 0.833571 2.27322 0.647609 2.50329 0.64138H2.52567C2.75574 0.647609 2.94284 0.833571 2.94911 1.06224V9.0257C2.94911 9.1654 3.0637 9.27929 3.20424 9.27929C3.34479 9.27929 3.45848 9.16629 3.45848 9.0257V1.06224C3.46475 0.833571 3.65185 0.647609 3.88192 0.64138H3.9043C4.13437 0.647609 4.32147 0.833571 4.32773 1.06224V9.0257C4.32773 9.1654 4.44232 9.27929 4.58197 9.27929C4.72163 9.27929 4.83711 9.16629 4.83711 9.0257V1.07381H4.8389C4.8389 0.534608 5.64727 0.507025 5.72963 0.991061L6.40194 11.0802C6.46371 11.9984 5.93643 12.8081 5.16744 13.2441C4.61689 13.705 4.25164 14.3892 4.2776 15.15V31.1374H27.6847V15.15C27.7097 14.4186 27.3722 13.7584 26.8584 13.2993C25.3831 12.1924 24.3652 9.83629 24.3652 7.10824C24.3652 3.31693 26.3311 0.244542 28.758 0.244542V0.243652Z" fill="#FF421D"/>
<path fill-rule="evenodd" clip-rule="evenodd" d="M20.6931 11.7564C21.9303 12.9674 22.6975 14.6508 22.6975 16.5131C22.6975 20.1995 19.6905 23.1891 15.9807 23.1891C14.107 23.1891 12.4133 22.4266 11.1949 21.1969C12.3605 22.149 13.8519 22.7211 15.4785 22.7211C19.2053 22.7211 22.2266 19.7181 22.2266 16.014C22.2266 14.3973 21.651 12.9149 20.6931 11.7564ZM15.9807 7.77112C20.8381 7.77112 24.7762 11.6852 24.7762 16.5131C24.7762 21.341 20.8381 25.2551 15.9807 25.2551C11.1233 25.2551 7.18526 21.341 7.18526 16.5131C7.18526 11.6852 11.1233 7.77112 15.9807 7.77112Z" fill="#FF421D"/>
<path d="M42.8339 10.5809C42.2942 10.5809 41.8085 10.4884 41.3768 10.3034C40.9451 10.1107 40.6058 9.84084 40.3591 9.49391C40.1124 9.14698 39.9891 8.74223 39.9891 8.27966H41.3999C41.4308 8.64201 41.5657 8.93883 41.8047 9.17011C42.0514 9.4014 42.3944 9.51704 42.8339 9.51704C43.2888 9.51704 43.6434 9.40525 43.8978 9.18168C44.1522 8.95039 44.2794 8.65358 44.2794 8.29123C44.2794 8.0214 44.1985 7.80168 44.0366 7.63207C43.8824 7.46246 43.6858 7.3314 43.4468 7.23888C43.2155 7.14637 42.8917 7.04615 42.4754 6.93821C41.9512 6.79944 41.5233 6.66067 41.1918 6.5219C40.868 6.37542 40.5904 6.15184 40.3591 5.85117C40.1279 5.5505 40.0122 5.14961 40.0122 4.64849C40.0122 4.18592 40.1279 3.78117 40.3591 3.43425C40.5904 3.08732 40.9142 2.82134 41.3305 2.63631C41.7469 2.45128 42.2287 2.35877 42.7761 2.35877C43.5547 2.35877 44.1908 2.55536 44.6842 2.94855C45.1853 3.33402 45.4628 3.86598 45.5168 4.54441H44.0597C44.0366 4.22832 43.8978 3.9662 43.6434 3.75804C43.3967 3.54218 43.0613 3.43425 42.6373 3.43425C42.2518 3.43425 41.9396 3.53447 41.7006 3.73492C41.4693 3.92765 41.3537 4.21676 41.3537 4.60223C41.3537 4.84894 41.4269 5.05324 41.5734 5.21514C41.7276 5.36933 41.9203 5.49268 42.1516 5.5852C42.3829 5.67771 42.699 5.77793 43.0999 5.88587C43.6318 6.03235 44.0636 6.17883 44.3951 6.32531C44.7343 6.47179 45.0195 6.69922 45.2508 7.0076C45.4898 7.30827 45.6093 7.71302 45.6093 8.22184C45.6093 8.63045 45.4975 9.01592 45.2739 9.37827C45.0581 9.74061 44.7381 10.0336 44.3141 10.2572C43.8978 10.473 43.4044 10.5809 42.8339 10.5809ZM54.8782 4.02402C55.3794 4.02402 55.8265 4.1281 56.2197 4.33626C56.6206 4.54441 56.9328 4.85279 57.1564 5.2614C57.3877 5.67 57.5033 6.16341 57.5033 6.74162V10.5H56.1966V6.93821C56.1966 6.36771 56.0539 5.93212 55.7687 5.63145C55.4834 5.32307 55.0941 5.16888 54.6007 5.16888C54.1073 5.16888 53.7141 5.32307 53.4211 5.63145C53.1359 5.93212 52.9933 6.36771 52.9933 6.93821V10.5H51.6865V6.93821C51.6865 6.36771 51.5439 5.93212 51.2586 5.63145C50.9734 5.32307 50.584 5.16888 50.0906 5.16888C49.5972 5.16888 49.204 5.32307 48.9111 5.63145C48.6258 5.93212 48.4832 6.36771 48.4832 6.93821V10.5H47.1649V4.1281H48.4832V4.85665C48.6991 4.59452 48.9728 4.39022 49.3043 4.24374C49.6358 4.09726 49.9904 4.02402 50.3682 4.02402C50.877 4.02402 51.3319 4.13196 51.7328 4.34782C52.1337 4.56369 52.442 4.87592 52.6579 5.28452C52.8506 4.89905 53.1513 4.59452 53.5599 4.37095C53.9685 4.13966 54.408 4.02402 54.8782 4.02402ZM58.7414 7.28514C58.7414 6.64525 58.8725 6.0786 59.1346 5.5852C59.4044 5.09179 59.7668 4.71017 60.2216 4.44033C60.6842 4.16279 61.193 4.02402 61.7481 4.02402C62.2492 4.02402 62.6848 4.12425 63.0549 4.32469C63.4326 4.51743 63.7333 4.76028 63.9569 5.05324V4.1281H65.2868V10.5H63.9569V9.55173C63.7333 9.8524 63.4288 10.103 63.0433 10.3034C62.6578 10.5039 62.2184 10.6041 61.725 10.6041C61.1776 10.6041 60.6765 10.4653 60.2216 10.1878C59.7668 9.90251 59.4044 9.50933 59.1346 9.00821C58.8725 8.49939 58.7414 7.92503 58.7414 7.28514ZM63.9569 7.30827C63.9569 6.86883 63.8644 6.48721 63.6793 6.16341C63.502 5.83961 63.2669 5.5929 62.9739 5.4233C62.681 5.25369 62.3649 5.16888 62.0257 5.16888C61.6864 5.16888 61.3704 5.25369 61.0774 5.4233C60.7844 5.5852 60.5454 5.82804 60.3604 6.15184C60.1831 6.46793 60.0944 6.8457 60.0944 7.28514C60.0944 7.72458 60.1831 8.11006 60.3604 8.44156C60.5454 8.77307 60.7844 9.02749 61.0774 9.2048C61.3781 9.37441 61.6942 9.45922 62.0257 9.45922C62.3649 9.45922 62.681 9.37441 62.9739 9.2048C63.2669 9.0352 63.502 8.78849 63.6793 8.46469C63.8644 8.13318 63.9569 7.74771 63.9569 7.30827ZM68.3367 5.23827C68.5294 4.85279 68.7838 4.55598 69.0999 4.34782C69.4237 4.13196 69.8053 4.02402 70.2448 4.02402V5.3886H69.9094C69.3929 5.3886 68.9997 5.51966 68.7299 5.78179C68.4677 6.04391 68.3367 6.49877 68.3367 7.14637V10.5H67.0183V4.1281H68.3367V5.23827ZM72.9946 5.20357V8.73067C72.9946 8.96966 73.0486 9.14313 73.1565 9.25106C73.2722 9.35128 73.4649 9.4014 73.7347 9.4014H74.5442V10.5H73.5034C72.9098 10.5 72.455 10.3612 72.1389 10.0837C71.8228 9.80615 71.6647 9.35514 71.6647 8.73067V5.20357H70.9131V4.1281H71.6647V2.5438H72.9946V4.1281H74.5442V5.20357H72.9946ZM41.504 22.4939H44.2216V23.5H40.1857V15.4628H41.504V22.4939ZM45.9948 16.2839C45.7558 16.2839 45.5554 16.203 45.3935 16.0411C45.2316 15.8792 45.1506 15.6787 45.1506 15.4397C45.1506 15.2007 45.2316 15.0003 45.3935 14.8384C45.5554 14.6765 45.7558 14.5955 45.9948 14.5955C46.2261 14.5955 46.4227 14.6765 46.5846 14.8384C46.7465 15.0003 46.8274 15.2007 46.8274 15.4397C46.8274 15.6787 46.7465 15.8792 46.5846 16.0411C46.4227 16.203 46.2261 16.2839 45.9948 16.2839ZM46.6424 17.1281V23.5H45.3241V17.1281H46.6424ZM51.0446 18.2036H49.865V23.5H48.5352V18.2036H47.7835V17.1281H48.5352V16.6771C48.5352 15.9447 48.7279 15.4127 49.1134 15.0812C49.5066 14.742 50.1195 14.5724 50.9521 14.5724V15.671C50.5512 15.671 50.2698 15.7481 50.1079 15.9023C49.946 16.0488 49.865 16.307 49.865 16.6771V17.1281H51.0446V18.2036ZM58.0529 20.1348C58.0529 20.3584 58.0375 20.5665 58.0066 20.7593H53.1265C53.1651 21.2912 53.354 21.7153 53.6932 22.0313C54.0324 22.3397 54.4526 22.4939 54.9537 22.4939C55.6629 22.4939 56.1641 22.1971 56.457 21.6035H57.8794C57.6867 22.1894 57.3359 22.6712 56.8271 23.049C56.326 23.4191 55.7015 23.6041 54.9537 23.6041C54.3446 23.6041 53.7972 23.4692 53.3115 23.1993C52.8336 22.9218 52.4558 22.5363 52.1783 22.0429C51.9084 21.5418 51.7735 20.9636 51.7735 20.3083C51.7735 19.653 51.9046 19.0786 52.1667 18.5852C52.4365 18.0841 52.8104 17.6986 53.2884 17.4288C53.7741 17.1589 54.3292 17.024 54.9537 17.024C55.555 17.024 56.0908 17.1551 56.5611 17.4172C57.0314 17.6793 57.3976 18.0455 57.6597 18.5158C57.9218 18.9861 58.0529 19.5258 58.0529 20.1348ZM56.6767 19.811C56.669 19.2945 56.4956 18.8859 56.1564 18.5852C55.8248 18.2845 55.4047 18.1342 54.8959 18.1342C54.4333 18.1342 54.0362 18.2845 53.7047 18.5852C53.3809 18.8859 53.1921 19.2945 53.1381 19.811H56.6767ZM67.2464 23.5L64.1356 19.9035V23.5H62.8173V15.4628H64.1356V19.1287L67.2579 15.4628H68.9116L65.4192 19.4872L68.9694 23.5H67.2464ZM70.806 16.2839C70.567 16.2839 70.3666 16.203 70.2047 16.0411C70.0428 15.8792 69.9618 15.6787 69.9618 15.4397C69.9618 15.2007 70.0428 15.0003 70.2047 14.8384C70.3666 14.6765 70.567 14.5955 70.806 14.5955C71.0373 14.5955 71.2339 14.6765 71.3958 14.8384C71.5577 15.0003 71.6386 15.2007 71.6386 15.4397C71.6386 15.6787 71.5577 15.8792 71.3958 16.0411C71.2339 16.203 71.0373 16.2839 70.806 16.2839ZM71.4536 17.1281V23.5H70.1353V17.1281H71.4536ZM74.7225 18.2036V21.7307C74.7225 21.9697 74.7764 22.1431 74.8844 22.2511C75 22.3513 75.1928 22.4014 75.4626 22.4014H76.2721V23.5H75.2313C74.6377 23.5 74.1828 23.3612 73.8667 23.0837C73.5506 22.8061 73.3926 22.3551 73.3926 21.7307V18.2036H72.6409V17.1281H73.3926V15.5438H74.7225V17.1281H76.2721V18.2036H74.7225ZM77.0477 20.3083C77.0477 19.653 77.1788 19.0786 77.4409 18.5852C77.7107 18.0841 78.0808 17.6986 78.5511 17.4288C79.0213 17.1589 79.561 17.024 80.1701 17.024C80.941 17.024 81.577 17.209 82.0782 17.5791C82.587 17.9415 82.9301 18.4618 83.1074 19.1403H81.685C81.5693 18.8242 81.3843 18.5775 81.1299 18.4002C80.8755 18.2228 80.5555 18.1342 80.1701 18.1342C79.6304 18.1342 79.1987 18.3269 78.8749 18.7124C78.5588 19.0902 78.4007 19.6221 78.4007 20.3083C78.4007 20.9944 78.5588 21.5302 78.8749 21.9157C79.1987 22.3012 79.6304 22.4939 80.1701 22.4939C80.9333 22.4939 81.4383 22.1585 81.685 21.4878H83.1074C82.9223 22.1354 82.5754 22.652 82.0666 23.0374C81.5578 23.4152 80.9256 23.6041 80.1701 23.6041C79.561 23.6041 79.0213 23.4692 78.5511 23.1993C78.0808 22.9218 77.7107 22.5363 77.4409 22.0429C77.1788 21.5418 77.0477 20.9636 77.0477 20.3083ZM87.717 17.024C88.2027 17.024 88.6344 17.1281 89.0122 17.3363C89.3977 17.5444 89.6983 17.8528 89.9142 18.2614C90.1378 18.67 90.2496 19.1634 90.2496 19.7416V23.5H88.9428V19.9382C88.9428 19.3677 88.8002 18.9321 88.5149 18.6315C88.2297 18.3231 87.8403 18.1689 87.3469 18.1689C86.8535 18.1689 86.4603 18.3231 86.1674 18.6315C85.8821 18.9321 85.7395 19.3677 85.7395 19.9382V23.5H84.4212V14.9425H85.7395V17.8682C85.9631 17.5984 86.2445 17.3902 86.5837 17.2437C86.9306 17.0973 87.3084 17.024 87.717 17.024ZM97.7711 20.1348C97.7711 20.3584 97.7557 20.5665 97.7248 20.7593H92.8447C92.8833 21.2912 93.0722 21.7153 93.4114 22.0313C93.7506 22.3397 94.1708 22.4939 94.6719 22.4939C95.3812 22.4939 95.8823 22.1971 96.1752 21.6035H97.5976C97.4049 22.1894 97.0541 22.6712 96.5453 23.049C96.0442 23.4191 95.4197 23.6041 94.6719 23.6041C94.0628 23.6041 93.5155 23.4692 93.0298 23.1993C92.5518 22.9218 92.174 22.5363 91.8965 22.0429C91.6266 21.5418 91.4917 20.9636 91.4917 20.3083C91.4917 19.653 91.6228 19.0786 91.8849 18.5852C92.1547 18.0841 92.5286 17.6986 93.0066 17.4288C93.4923 17.1589 94.0474 17.024 94.6719 17.024C95.2732 17.024 95.809 17.1551 96.2793 17.4172C96.7496 17.6793 97.1158 18.0455 97.3779 18.5158C97.64 18.9861 97.7711 19.5258 97.7711 20.1348ZM96.395 19.811C96.3873 19.2945 96.2138 18.8859 95.8746 18.5852C95.5431 18.2845 95.1229 18.1342 94.6141 18.1342C94.1515 18.1342 93.7545 18.2845 93.4229 18.5852C93.0992 18.8859 92.9103 19.2945 92.8563 19.811H96.395ZM102.283 17.024C102.784 17.024 103.232 17.1281 103.625 17.3363C104.026 17.5444 104.338 17.8528 104.561 18.2614C104.785 18.67 104.897 19.1634 104.897 19.7416V23.5H103.59V19.9382C103.59 19.3677 103.447 18.9321 103.162 18.6315C102.877 18.3231 102.488 18.1689 101.994 18.1689C101.501 18.1689 101.108 18.3231 100.815 18.6315C100.529 18.9321 100.387 19.3677 100.387 19.9382V23.5H99.0685V17.1281H100.387V17.8566C100.603 17.5945 100.876 17.3902 101.208 17.2437C101.547 17.0973 101.906 17.024 102.283 17.024ZM45.0311 33.8579H41.6659L41.0877 35.5H39.7115L42.591 27.4513H44.1175L46.997 35.5H45.6093L45.0311 33.8579ZM44.6726 32.8287L43.3543 29.0472L42.0244 32.8287H44.6726ZM50.5388 35.6041C50.0453 35.6041 49.602 35.5154 49.2089 35.3381C48.8157 35.1531 48.5034 34.9064 48.2722 34.598C48.0409 34.2819 47.9175 33.9311 47.9021 33.5456H49.2667C49.2898 33.8386 49.417 34.0815 49.6483 34.2742C49.8873 34.4669 50.1841 34.5633 50.5388 34.5633C50.9088 34.5633 51.1941 34.4901 51.3945 34.3436C51.6027 34.1894 51.7067 33.9851 51.7067 33.7307C51.7067 33.4994 51.5911 33.3221 51.3598 33.1987C51.1285 33.0754 50.77 32.952 50.2843 32.8287C49.8141 32.6976 49.4286 32.5742 49.1279 32.4586C48.835 32.3353 48.5805 32.1502 48.3647 31.9035C48.1488 31.6491 48.0409 31.3215 48.0409 30.9206C48.0409 30.5736 48.1372 30.2575 48.33 29.9723C48.5227 29.6793 48.8003 29.448 49.1626 29.2784C49.5327 29.1088 49.9644 29.024 50.4578 29.024C51.1825 29.024 51.7646 29.209 52.204 29.5791C52.6512 29.9415 52.8901 30.4387 52.921 31.0709H51.6027C51.5795 30.7625 51.4639 30.5197 51.2557 30.3423C51.0476 30.1573 50.7662 30.0648 50.4115 30.0648C50.0646 30.0648 49.7986 30.138 49.6136 30.2845C49.4286 30.4233 49.3361 30.6122 49.3361 30.8512C49.3361 31.0208 49.3977 31.1634 49.5211 31.2791C49.6444 31.3947 49.7986 31.4872 49.9837 31.5566C50.1687 31.6183 50.4308 31.6954 50.77 31.7879C51.2326 31.9112 51.6104 32.0346 51.9033 32.1579C52.1963 32.2813 52.4469 32.4702 52.655 32.7246C52.8632 32.9713 52.9672 33.2951 52.9672 33.696C52.9672 34.0583 52.8709 34.386 52.6781 34.6789C52.4854 34.9642 52.204 35.1916 51.8339 35.3612C51.4716 35.5231 51.0399 35.6041 50.5388 35.6041ZM56.7161 35.6041C56.2227 35.6041 55.7794 35.5154 55.3862 35.3381C54.9931 35.1531 54.6808 34.9064 54.4495 34.598C54.2183 34.2819 54.0949 33.9311 54.0795 33.5456H55.4441C55.4672 33.8386 55.5944 34.0815 55.8257 34.2742C56.0647 34.4669 56.3615 34.5633 56.7161 34.5633C57.0862 34.5633 57.3714 34.4901 57.5719 34.3436C57.78 34.1894 57.8841 33.9851 57.8841 33.7307C57.8841 33.4994 57.7685 33.3221 57.5372 33.1987C57.3059 33.0754 56.9474 32.952 56.4617 32.8287C55.9914 32.6976 55.606 32.5742 55.3053 32.4586C55.0123 32.3353 54.7579 32.1502 54.5421 31.9035C54.3262 31.6491 54.2183 31.3215 54.2183 30.9206C54.2183 30.5736 54.3146 30.2575 54.5074 29.9723C54.7001 29.6793 54.9776 29.448 55.34 29.2784C55.71 29.1088 56.1418 29.024 56.6352 29.024C57.3599 29.024 57.9419 29.209 58.3814 29.5791C58.8285 29.9415 59.0675 30.4387 59.0984 31.0709H57.78C57.7569 30.7625 57.6413 30.5197 57.4331 30.3423C57.225 30.1573 56.9436 30.0648 56.5889 30.0648C56.242 30.0648 55.976 30.138 55.791 30.2845C55.606 30.4233 55.5135 30.6122 55.5135 30.8512C55.5135 31.0208 55.5751 31.1634 55.6985 31.2791C55.8218 31.3947 55.976 31.4872 56.1611 31.5566C56.3461 31.6183 56.6082 31.6954 56.9474 31.7879C57.41 31.9112 57.7878 32.0346 58.0807 32.1579C58.3737 32.2813 58.6242 32.4702 58.8324 32.7246C59.0405 32.9713 59.1446 33.2951 59.1446 33.696C59.1446 34.0583 59.0483 34.386 58.8555 34.6789C58.6628 34.9642 58.3814 35.1916 58.0113 35.3612C57.649 35.5231 57.2173 35.6041 56.7161 35.6041ZM61.2745 28.2839C61.0355 28.2839 60.8351 28.203 60.6732 28.0411C60.5113 27.8792 60.4303 27.6787 60.4303 27.4397C60.4303 27.2007 60.5113 27.0003 60.6732 26.8384C60.8351 26.6765 61.0355 26.5955 61.2745 26.5955C61.5058 26.5955 61.7024 26.6765 61.8643 26.8384C62.0262 27.0003 62.1072 27.2007 62.1072 27.4397C62.1072 27.6787 62.0262 27.8792 61.8643 28.0411C61.7024 28.203 61.5058 28.2839 61.2745 28.2839ZM61.9221 29.1281V35.5H60.6038V29.1281H61.9221ZM65.9427 35.6041C65.4493 35.6041 65.006 35.5154 64.6128 35.3381C64.2196 35.1531 63.9074 34.9064 63.6761 34.598C63.4448 34.2819 63.3215 33.9311 63.306 33.5456H64.6706C64.6937 33.8386 64.821 34.0815 65.0522 34.2742C65.2912 34.4669 65.5881 34.5633 65.9427 34.5633C66.3127 34.5633 66.598 34.4901 66.7984 34.3436C67.0066 34.1894 67.1107 33.9851 67.1107 33.7307C67.1107 33.4994 66.995 33.3221 66.7637 33.1987C66.5325 33.0754 66.174 32.952 65.6883 32.8287C65.218 32.6976 64.8325 32.5742 64.5318 32.4586C64.2389 32.3353 63.9845 32.1502 63.7686 31.9035C63.5527 31.6491 63.4448 31.3215 63.4448 30.9206C63.4448 30.5736 63.5412 30.2575 63.7339 29.9723C63.9267 29.6793 64.2042 29.448 64.5665 29.2784C64.9366 29.1088 65.3683 29.024 65.8617 29.024C66.5864 29.024 67.1685 29.209 67.6079 29.5791C68.0551 29.9415 68.2941 30.4387 68.3249 31.0709H67.0066C66.9835 30.7625 66.8678 30.5197 66.6597 30.3423C66.4515 30.1573 66.1701 30.0648 65.8155 30.0648C65.4686 30.0648 65.2026 30.138 65.0175 30.2845C64.8325 30.4233 64.74 30.6122 64.74 30.8512C64.74 31.0208 64.8017 31.1634 64.925 31.2791C65.0484 31.3947 65.2026 31.4872 65.3876 31.5566C65.5726 31.6183 65.8348 31.6954 66.174 31.7879C66.6365 31.9112 67.0143 32.0346 67.3073 32.1579C67.6002 32.2813 67.8508 32.4702 68.0589 32.7246C68.2671 32.9713 68.3712 33.2951 68.3712 33.696C68.3712 34.0583 68.2748 34.386 68.0821 34.6789C67.8893 34.9642 67.6079 35.1916 67.2379 35.3612C66.8755 35.5231 66.4438 35.6041 65.9427 35.6041ZM71.3684 30.2036V33.7307C71.3684 33.9697 71.4224 34.1431 71.5303 34.2511C71.6459 34.3513 71.8387 34.4014 72.1085 34.4014H72.918V35.5H71.8772C71.2836 35.5 70.8287 35.3612 70.5126 35.0837C70.1966 34.8061 70.0385 34.3551 70.0385 33.7307V30.2036H69.2868V29.1281H70.0385V27.5438H71.3684V29.1281H72.918V30.2036H71.3684ZM73.6936 32.2851C73.6936 31.6453 73.8247 31.0786 74.0868 30.5852C74.3566 30.0918 74.719 29.7102 75.1738 29.4403C75.6364 29.1628 76.1452 29.024 76.7003 29.024C77.2014 29.024 77.637 29.1242 78.0071 29.3247C78.3849 29.5174 78.6855 29.7603 78.9091 30.0532V29.1281H80.239V35.5H78.9091V34.5517C78.6855 34.8524 78.381 35.103 77.9955 35.3034C77.61 35.5039 77.1706 35.6041 76.6772 35.6041C76.1298 35.6041 75.6287 35.4653 75.1738 35.1878C74.719 34.9025 74.3566 34.5093 74.0868 34.0082C73.8247 33.4994 73.6936 32.925 73.6936 32.2851ZM78.9091 32.3083C78.9091 31.8688 78.8166 31.4872 78.6316 31.1634C78.4542 30.8396 78.2191 30.5929 77.9261 30.4233C77.6332 30.2537 77.3171 30.1689 76.9779 30.1689C76.6387 30.1689 76.3226 30.2537 76.0296 30.4233C75.7366 30.5852 75.4976 30.828 75.3126 31.1518C75.1353 31.4679 75.0466 31.8457 75.0466 32.2851C75.0466 32.7246 75.1353 33.1101 75.3126 33.4416C75.4976 33.7731 75.7366 34.0275 76.0296 34.2048C76.3303 34.3744 76.6464 34.4592 76.9779 34.4592C77.3171 34.4592 77.6332 34.3744 77.9261 34.2048C78.2191 34.0352 78.4542 33.7885 78.6316 33.4647C78.8166 33.1332 78.9091 32.7477 78.9091 32.3083ZM85.1854 29.024C85.6865 29.024 86.1337 29.1281 86.5269 29.3363C86.9278 29.5444 87.24 29.8528 87.4636 30.2614C87.6871 30.67 87.7989 31.1634 87.7989 31.7416V35.5H86.4922V31.9382C86.4922 31.3677 86.3495 30.9321 86.0643 30.6315C85.779 30.3231 85.3897 30.1689 84.8963 30.1689C84.4029 30.1689 84.0097 30.3231 83.7168 30.6315C83.4315 30.9321 83.2889 31.3677 83.2889 31.9382V35.5H81.9706V29.1281H83.2889V29.8566C83.5047 29.5945 83.7784 29.3902 84.1099 29.2437C84.4492 29.0973 84.8076 29.024 85.1854 29.024ZM91.0186 30.2036V33.7307C91.0186 33.9697 91.0725 34.1431 91.1805 34.2511C91.2961 34.3513 91.4889 34.4014 91.7587 34.4014H92.5682V35.5H91.5274C90.9338 35.5 90.4789 35.3612 90.1628 35.0837C89.8467 34.8061 89.6887 34.3551 89.6887 33.7307V30.2036H88.937V29.1281H89.6887V27.5438H91.0186V29.1281H92.5682V30.2036H91.0186ZM99.9933 31.9151H97.6688V34.2742H96.4199V31.9151H94.0955V30.7355H96.4199V28.3764H97.6688V30.7355H99.9933V31.9151Z" fill="black"/>
</svg>
