<svg width="10" height="11" viewBox="0 0 10 11" fill="none" xmlns="http://www.w3.org/2000/svg">
<path d="M0.00142232 5.51638C0.0342302 7.16746 0.746263 8.81909 1.95452 9.81403C2.33539 10.1154 2.74908 10.2931 3.17968 10.4889C2.99719 9.22773 3.4442 7.9666 3.69231 6.72361C3.72563 6.59932 3.74203 6.45742 3.74203 6.31497C3.74203 6.11972 3.6759 5.92447 3.62618 5.72923C3.57334 5.40429 3.61374 5.06979 3.74203 4.77004C3.92453 4.36194 4.35462 4.04185 4.7355 4.20189C5.08305 4.34379 5.21531 4.84099 5.14918 5.23203C5.08254 5.64013 4.88416 5.99542 4.78522 6.38647C4.66937 6.77696 4.68577 7.25656 4.95028 7.52276C5.19891 7.77135 5.59619 7.7895 5.91043 7.64705C6.37384 7.43421 6.67218 6.93701 6.85365 6.43982C7.18532 5.51583 7.11919 4.34434 6.44048 3.66895C6.15854 3.367 5.76177 3.17176 5.33116 3.10081C4.60324 2.97651 3.80867 3.2075 3.29502 3.77565C2.7824 4.34379 2.55018 5.21388 2.76548 5.96022C2.83213 6.20882 2.96438 6.45742 3.01411 6.70601C3.06383 6.95461 3.04692 7.27416 2.88134 7.45181C2.86213 7.47331 2.8398 7.49133 2.81521 7.50516C2.78189 7.52275 2.73268 7.48756 2.69936 7.46941C2.38512 7.25656 2.1365 6.91941 1.98784 6.56412C1.52391 5.48063 1.75613 4.13094 2.48406 3.2427C3.21249 2.35502 4.38794 1.92822 5.48034 2.08827C6.50661 2.23072 7.51596 2.88741 7.94656 3.89995C8.21159 4.50384 8.2608 5.19628 8.16187 5.85352C8.06242 6.52837 7.81431 7.16801 7.40011 7.6828C6.98591 8.1976 6.39024 8.55289 5.76177 8.58864C5.24863 8.62384 4.70217 8.42859 4.43715 7.96715C4.27208 8.92579 3.95733 9.86683 3.49392 10.7017C3.47752 10.7375 4.55351 10.9861 4.65245 10.9861C5.87762 11.0928 7.18481 10.5774 8.14546 9.76068C10.7937 7.50515 10.5122 3.18936 7.89684 1.05868C6.53941 -0.0605567 4.93388 -0.273404 3.34475 0.330489C2.86493 0.508137 2.41793 0.810083 2.00424 1.12963C1.34418 1.65865 0.815515 2.35372 0.464833 3.15361C0.117275 3.88235 -0.0154942 4.69964 0.00142232 5.51638Z" fill="black"/>
</svg>
