<svg width="10" height="11" viewBox="0 0 10 11" fill="none" xmlns="http://www.w3.org/2000/svg">
<path d="M5 0C6.36095 0 6.5286 0.0108481 7.06114 0.0325444C7.58383 0.0542406 7.94872 0.151874 8.27416 0.292899C8.60947 0.433925 8.8856 0.618343 9.16174 0.922091C9.43787 1.22584 9.60552 1.52959 9.73373 1.89842C9.86193 2.25641 9.95069 2.65779 9.97041 3.23274C9.99014 3.81854 10 4.00296 10 5.5C10 6.99704 9.99014 7.18146 9.97041 7.76726C9.95069 8.34221 9.86193 8.74359 9.73373 9.10158C9.60552 9.47041 9.43787 9.77416 9.16174 10.0779C8.8856 10.3817 8.60947 10.5661 8.27416 10.7071C7.94872 10.8481 7.58383 10.9458 7.06114 10.9675C6.5286 10.9892 6.36095 11 5 11C3.63905 11 3.4714 10.9892 2.93886 10.9675C2.41617 10.9458 2.05128 10.8481 1.72584 10.7071C1.39053 10.5661 1.1144 10.3817 0.838264 10.0779C0.56213 9.77416 0.394477 9.47041 0.266272 9.10158C0.138067 8.74359 0.0493097 8.34221 0.0295858 7.76726C0.00986193 7.18146 0 6.99704 0 5.5C0 4.00296 0.00986193 3.81854 0.0295858 3.23274C0.0493097 2.65779 0.138067 2.25641 0.266272 1.89842C0.394477 1.52959 0.56213 1.22584 0.838264 0.922091C1.1144 0.618343 1.39053 0.433925 1.72584 0.292899C2.05128 0.151874 2.41617 0.0542406 2.93886 0.0325444C3.4714 0.0108481 3.63905 0 5 0ZM5 0.715976C3.57988 0.715976 3.41223 0.726824 2.85996 0.748521C2.34714 0.770217 2.06114 0.878698 1.87377 0.954635C1.39053 1.1716 1.06509 1.52959 0.86785 2.06114C0.798817 2.26726 0.700197 2.58185 0.680473 3.14596C0.660749 3.75345 0.650888 3.93787 0.650888 5.5C0.650888 7.06213 0.660749 7.24655 0.680473 7.85404C0.700197 8.41815 0.798817 8.73274 0.86785 8.93886C1.06509 9.47041 1.39053 9.8284 1.87377 10.0454C2.06114 10.1213 2.34714 10.2298 2.85996 10.2515C3.41223 10.2732 3.57988 10.284 5 10.284C6.42012 10.284 6.58777 10.2732 7.14004 10.2515C7.65286 10.2298 7.93886 10.1213 8.12623 10.0454C8.60947 9.8284 8.93491 9.47041 9.13215 8.93886C9.20118 8.73274 9.2998 8.41815 9.31953 7.85404C9.33925 7.24655 9.34911 7.06213 9.34911 5.5C9.34911 3.93787 9.33925 3.75345 9.31953 3.14596C9.2998 2.58185 9.20118 2.26726 9.13215 2.06114C8.93491 1.52959 8.60947 1.1716 8.12623 0.954635C7.93886 0.878698 7.65286 0.770217 7.14004 0.748521C6.58777 0.726824 6.42012 0.715976 5 0.715976ZM5 7.70217C6.10454 7.70217 7.00197 6.71499 7.00197 5.5C7.00197 4.28501 6.10454 3.29783 5 3.29783C3.89546 3.29783 2.99803 4.28501 2.99803 5.5C2.99803 6.71499 3.89546 7.70217 5 7.70217ZM5 2.67949C6.42012 2.67949 7.5641 3.93787 7.5641 5.5C7.5641 7.06213 6.42012 8.32051 5 8.32051C3.57988 8.32051 2.4359 7.06213 2.4359 5.5C2.4359 3.93787 3.57988 2.67949 5 2.67949ZM8.27416 2.57101C8.27416 2.93984 7.99803 3.22189 7.66272 3.22189C7.32742 3.22189 7.07101 2.93984 7.07101 2.57101C7.07101 2.20217 7.32742 1.89842 7.66272 1.89842C7.99803 1.89842 8.27416 2.20217 8.27416 2.57101Z" fill="black"/>
</svg>
