<svg width="10" height="11" viewBox="0 0 10 11" fill="none" xmlns="http://www.w3.org/2000/svg">
<path fill-rule="evenodd" clip-rule="evenodd" d="M9.30722 1.01379C9.35526 0.95336 9.39201 0.883116 9.41538 0.807066C9.43874 0.731017 9.44825 0.65065 9.44338 0.570555C9.4385 0.490461 9.41933 0.412207 9.38696 0.340261C9.35459 0.268315 9.30966 0.204087 9.25472 0.151243C9.19979 0.0983994 9.13592 0.0579752 9.06678 0.0322784C8.99765 0.00658169 8.92458 -0.00388428 8.85176 0.00147806C8.77895 0.0068404 8.70781 0.0279261 8.6424 0.0635312C8.57699 0.0991362 8.5186 0.148563 8.47056 0.208991L5.63167 3.77772L3.22222 0.244433C3.17047 0.168539 3.10337 0.10694 3.02623 0.0645137C2.94909 0.0220876 2.86403 0 2.77778 0H0.555556C0.452383 0 0.351247 0.031602 0.263483 0.0912648C0.175719 0.150928 0.104792 0.236294 0.0586517 0.337799C0.0125113 0.439303 -0.00702045 0.552935 0.00224509 0.665962C0.0115106 0.778989 0.0492074 0.886945 0.111111 0.977733L3.68722 6.22205L0.692778 9.98632C0.644736 10.0468 0.607985 10.117 0.584623 10.193C0.561262 10.2691 0.551747 10.3495 0.556622 10.4296C0.561497 10.5097 0.580666 10.5879 0.613036 10.6599C0.645406 10.7318 0.690342 10.796 0.745278 10.8489C0.800214 10.9017 0.864075 10.9421 0.933214 10.9678C1.00235 10.9935 1.07542 11.004 1.14823 10.9986C1.22105 10.9933 1.29219 10.9722 1.3576 10.9366C1.42301 10.901 1.4814 10.8515 1.52944 10.7911L4.36833 7.22178L6.77778 10.7551C6.82953 10.831 6.89663 10.8926 6.97377 10.935C7.05091 10.9774 7.13597 10.9995 7.22222 10.9995H9.44444C9.54762 10.9995 9.64875 10.9679 9.73652 10.9082C9.82428 10.8486 9.89521 10.7632 9.94135 10.6617C9.98749 10.5602 10.007 10.4466 9.99776 10.3335C9.98849 10.2205 9.95079 10.1126 9.88889 10.0218L6.31278 4.77745L9.30722 1.01379ZM7.5 9.77733L1.66667 1.22217H2.5L8.33333 9.77733H7.5Z" fill="black"/>
</svg>
