<svg width="11" height="11" viewBox="0 0 11 11" fill="none" xmlns="http://www.w3.org/2000/svg">
<path d="M6.32246 11C8.9698 10.6007 11 8.30389 11 5.53063C11 2.47602 8.53769 0 5.5 0C2.46231 0 0 2.47602 0 5.53063C0 8.30446 2.03021 10.6007 4.67754 11V7.14387H3.52113C3.44842 7.14387 3.37869 7.11483 3.32727 7.06313C3.27586 7.01143 3.24697 6.94131 3.24697 6.86819V5.82276C3.24697 5.67017 3.36995 5.54708 3.52113 5.54708H4.67754L4.63692 4.44493C4.63692 3.91058 4.73564 3.04327 5.39395 2.56905C5.85426 2.23835 6.19667 2.17595 6.7461 2.17595C7.22277 2.17595 7.55051 2.2236 7.76713 2.25536L7.87318 2.26954C7.89945 2.27299 7.92357 2.28596 7.94101 2.30601C7.95846 2.32606 7.96804 2.35182 7.96795 2.37846V3.53563C7.96795 3.59973 7.91436 3.64908 7.85231 3.64568H7.83087C7.76656 3.64795 7.43036 3.66213 7.14492 3.66213C6.64287 3.66213 6.32246 3.89243 6.32246 4.65764V5.54708H7.55897C7.72821 5.54708 7.85738 5.70024 7.82974 5.86814L7.6718 6.91357C7.66112 6.9779 7.62812 7.03633 7.57864 7.0785C7.52917 7.12066 7.46644 7.14383 7.40159 7.14387H6.32246V11Z" fill="black"/>
</svg>
